<?xml version="1.0" encoding="iso-8859-1"?>
<!-- Generator: Adobe Illustrator 19.0.0, SVG Export Plug-In . SVG Version: 6.00 Build 0)  -->
<svg version="1.1" id="Capa_1" fill="currentColor" stroke="currentColor"  stroke-linecap="round" stroke-linejoin="round" xmlns="http://www.w3.org/2000/svg" xmlns:xlink="http://www.w3.org/1999/xlink" x="0px" y="0px"
	 viewBox="0 0 476.96 476.96" style="enable-background:new 0 0 476.96 476.96;" xml:space="preserve">
<g>
	<g>
		<path d="M385.84,289.28h-56.72v-79.04h13.36c4.418,0,8-3.582,8-8v-46.32c0-4.418-3.582-8-8-8H320
			c-0.48-42.16-10.56-73.76-30.16-93.68c-11.537-11.963-26.856-19.566-43.36-21.52V8c0-4.418-3.582-8-8-8s-8,3.582-8,8v24.72
			c-16.535,2.019-31.859,9.709-43.36,21.76c-19.6,20-29.68,51.52-30.16,93.68h-25.92c-4.418,0-8,3.582-8,8v46.32
			c0,4.418,3.582,8,8,8h10.4v79.04H91.12c-4.418,0-8,3.582-8,8v171.44c0,4.418,3.582,8,8,8h294.72c4.418,0,8-3.582,8-8V297.28
			C393.84,292.862,390.258,289.28,385.84,289.28z M198.48,65.44L198.48,65.44c10.09-10.573,23.951-16.727,38.56-17.12h2.8
			c14.637,0.372,28.531,6.528,38.64,17.12c16.64,16.96,25.28,44.64,25.68,82.48H172.8C173.28,110.08,181.92,82.32,198.48,65.44z
			 M273.84,461.04h-70.72v-56c0-19.551,15.849-35.4,35.4-35.4c19.551,0,35.4,15.849,35.4,35.4L273.84,461.04z M289.84,461.04v-56
			c0-28.387-23.013-51.4-51.4-51.4c-28.387,0-51.4,23.013-51.4,51.4v56h-88V305.28h50.32c4.418,0,8-3.582,8-8v-95.04
			c0-4.418-3.582-8-8-8h-10.4v-30.32h195.52v30.32h-13.6c-4.418,0-8,3.582-8,8v95.04c0,4.418,3.582,8,8,8h56.72l0.24,155.76H289.84z
			"/>
	</g>
</g>
<g>
	<g>
		<path d="M156.4,353.36h-28.16c-4.418,0-8,3.582-8,8s3.582,8,8,8h28.16c4.418,0,8-3.582,8-8S160.818,353.36,156.4,353.36z"/>
	</g>
</g>
<g>
	<g>
		<path d="M156.4,400.48h-28.16c-4.418,0-8,3.582-8,8s3.582,8,8,8h28.16c4.418,0,8-3.582,8-8S160.818,400.48,156.4,400.48z"/>
	</g>
</g>
<g>
	<g>
		<path d="M348.72,353.36h-28.16c-4.418,0-8,3.582-8,8s3.582,8,8,8h28.16c4.418,0,8-3.582,8-8S353.138,353.36,348.72,353.36z"/>
	</g>
</g>
<g>
	<g>
		<path d="M348.72,400.48h-28.16c-4.418,0-8,3.582-8,8s3.582,8,8,8h28.16c4.418,0,8-3.582,8-8S353.138,400.48,348.72,400.48z"/>
	</g>
</g>
<g>
	<g>
		<path d="M187.04,182.48c-4.418,0-8,3.582-8,8v32c0,4.418,3.582,8,8,8s8-3.582,8-8v-32
			C195.04,186.062,191.458,182.48,187.04,182.48z"/>
	</g>
</g>
<g>
	<g>
		<path d="M238.48,182.48c-4.418,0-8,3.582-8,8v32c0,4.418,3.582,8,8,8s8-3.582,8-8v-32
			C246.48,186.062,242.898,182.48,238.48,182.48z"/>
	</g>
</g>
<g>
	<g>
		<path d="M289.92,182.48c-4.418,0-8,3.582-8,8v32c0,4.418,3.582,8,8,8s8-3.582,8-8v-32
			C297.92,186.062,294.338,182.48,289.92,182.48z"/>
	</g>
</g>
<g>
	<g>
		<path d="M187.04,253.52c-4.418,0-8,3.582-8,8v32c0,4.418,3.582,8,8,8s8-3.582,8-8v-32
			C195.04,257.102,191.458,253.52,187.04,253.52z"/>
	</g>
</g>
<g>
	<g>
		<path d="M238.48,253.52c-4.418,0-8,3.582-8,8v32c0,4.418,3.582,8,8,8s8-3.582,8-8v-32
			C246.48,257.102,242.898,253.52,238.48,253.52z"/>
	</g>
</g>
<g>
	<g>
		<path d="M289.92,253.52c-4.418,0-8,3.582-8,8v32c0,4.418,3.582,8,8,8s8-3.582,8-8v-32
			C297.92,257.102,294.338,253.52,289.92,253.52z"/>
	</g>
</g>
<g>
</g>
<g>
</g>
<g>
</g>
<g>
</g>
<g>
</g>
<g>
</g>
<g>
</g>
<g>
</g>
<g>
</g>
<g>
</g>
<g>
</g>
<g>
</g>
<g>
</g>
<g>
</g>
<g>
</g>
</svg>
