<svg id="Layer_3" enable-background="new 0 0 64 64" height="64" viewBox="0 0 64 64" width="64" fill="currentColor" stroke="currentColor"  stroke-linecap="round" stroke-linejoin="round" xmlns="http://www.w3.org/2000/svg"><path d="m61.574 34.729-.899-.385c-3.339-1.432-6.842-2.471-10.418-3.125l-1.736-10.999c-.386-2.445-2.462-4.22-4.939-4.22h-1.582c-2.721 0-5.452.271-8.118.804l-2.12.423-4.64-1.856c-.616-.246-1.265-.371-1.93-.371-2.863 0-5.192 2.329-5.192 5.192 0 2.936-.901 5.75-2.607 8.139l-.2.28c-.298.418-.565.851-.823 1.289l-5.747-.821c-.366-.053-.739-.079-1.108-.079h-.687c-2.092 0-4.058.814-5.535 2.293-1.457 1.457-2.293 3.475-2.293 5.535v1.344c0 2.061.836 4.078 2.293 5.535 4.058 4.059 9.453 6.293 15.192 6.293 7.68 0 15.412-1.729 22.359-4.998l.903-.425c3.695-1.739 7.599-3.026 11.602-3.827l7.761-1.552c1.095-.22 1.89-1.19 1.89-2.307 0-.941-.559-1.788-1.426-2.162zm-12.816-.184c.073.467-.194.926-.636 1.092-4.225 1.584-8.634 2.67-13.105 3.229l-3.752.469c-3.497.438-7.046.461-10.571.07-1.849-.206-3.515-1.157-4.628-2.631l.238-1.193c.029-.143.075-.28.108-.422l.85.243c3.714 1.062 7.557 1.6 11.421 1.6 3.614 0 7.219-.473 10.713-1.404l9.143-2.438zm-29.939-4.772.2-.28c1.95-2.729 2.98-5.946 2.98-9.301.001-1.76 1.433-3.192 3.193-3.192.409 0 .808.077 1.187.229l1.459.583c-1.276.125-2.559.188-3.838.188v2c2.721 0 5.452-.271 8.118-.804l2.156-.431c2.538-.508 5.137-.765 7.726-.765h1.582c1.485 0 2.732 1.065 2.964 2.532l1.679 10.64-9.345 2.492c-6.884 1.834-14.227 1.769-21.069-.188l-.819-.234c.458-1.224 1.056-2.39 1.827-3.469zm41.898 7.464-7.76 1.552c-4.161.832-8.219 2.171-12.061 3.978l-.903.425c-6.682 3.145-14.12 4.808-21.508 4.808-5.205 0-10.098-2.026-13.778-5.707-1.085-1.085-1.707-2.587-1.707-4.121v-1.344c0-1.534.622-3.036 1.707-4.121 1.101-1.101 2.564-1.707 4.121-1.707h.687c.274 0 .552.02.824.059l5.064.723c-.469 1.088-.824 2.225-1.06 3.406l-.323 1.616c-.052.26.001.53.148.751 1.435 2.152 3.732 3.551 6.324 3.84 1.724.191 3.457.287 5.19.287 1.949 0 3.897-.121 5.83-.363l3.752-.469c4.627-.578 9.188-1.702 13.56-3.34 1.328-.499 2.13-1.878 1.908-3.277l-.144-.91c3.188.633 6.312 1.579 9.299 2.86l.897.385c.132.055.216.183.216.324 0 .167-.119.312-.283.345z"/></svg>