<?xml version="1.0"?>
<svg version="1.1" id="Capa_1" fill="currentColor" stroke="currentColor"  stroke-linecap="round" stroke-linejoin="round" xmlns="http://www.w3.org/2000/svg" xmlns:xlink="http://www.w3.org/1999/xlink" x="0px" y="0px"
	 viewBox="0 0 476.96 476.96" style="enable-background:new 0 0 476.96 476.96;" xml:space="preserve"><g id="outline"><path d="M494.656,235.562l-.013-.02-.018-.026-47.969-71.954a8,8,0,0,0-4.126-3.152l-48-16a8.012,8.012,0,0,0-5.5.162L350.459,160H298.422l-21.984-14.656A8.005,8.005,0,0,0,272,144H252.944l-5.789-11.578a8,8,0,0,0-5.215-4.183l-32-8a8,8,0,0,0-4.911.333l-39.11,15.644-35.754,5.107A30.627,30.627,0,0,0,104,171.492v13.831L54.052,194.4A46.322,46.322,0,0,0,16,240V488a8,8,0,0,0,8,8H488a8,8,0,0,0,8-8V240a7.955,7.955,0,0,0-1.345-4.437ZM56.914,210.146l56.517-10.275A8,8,0,0,0,120,192V171.492a14.546,14.546,0,0,1,12.429-14.329L160,153.224V208a8,8,0,0,0,16,0V149.416l24-9.6V208a8,8,0,0,0,16,0V138.246l18.49,4.623,6.355,12.709A8,8,0,0,0,248,160h16v48a8,8,0,0,0,16,0V166.948l11.562,7.708A8.005,8.005,0,0,0,296,176v32a8,8,0,0,0,16,0V176h32v32a8,8,0,0,0,16,0V173.416l24-9.6V208a8,8,0,0,0,16,0V163.1l34.866,11.622L473.052,232H33.068A30.338,30.338,0,0,1,56.914,210.146ZM80,480H64V304a8,8,0,0,1,16,0Zm272-64H320a16.019,16.019,0,0,1-16-16V368a8,8,0,0,1,16,0v24a8,8,0,0,0,8,8h24Zm32,64H368V296a8,8,0,0,1,16,0Zm96-216H456a8,8,0,0,0,0,16h24V408H424a8,8,0,0,0,0,16h56v24H448a8,8,0,0,0,0,16h32v16H400V464h16a8,8,0,0,0,0-16H400V392h32a32.036,32.036,0,0,0,32-32V328a24,24,0,0,0-48,0v16H400V296a24,24,0,0,0-48,0v32H336a8,8,0,0,0,0,16h16v40H336V368a24,24,0,0,0-48,0v24H248a8,8,0,0,0,0,16h41.013A32.057,32.057,0,0,0,320,432h32v16H328a8,8,0,0,0,0,16h24v16H96V464h40a8,8,0,0,0,0-16H96V416h32a31.875,31.875,0,0,0,21.565-8.38A8,8,0,0,0,152,408h16a8,8,0,0,0,0-16h-9.013A31.94,31.94,0,0,0,160,384v-8h48a8,8,0,0,0,0-16H160v-8a24,24,0,0,0-48,0v16H96V304a24,24,0,0,0-48,0V480H32V248H480ZM400,376V360h24a8,8,0,0,0,8-8V328a8,8,0,0,1,16,0v32a16.019,16.019,0,0,1-16,16ZM96,400V384h24a8,8,0,0,0,8-8V352a8,8,0,0,1,16,0v32a16.019,16.019,0,0,1-16,16Z"/><path d="M146.343,309.657a8,8,0,0,0,11.314,0l24-24a8,8,0,1,0-11.314-11.314L160,284.686V272a8,8,0,0,0-16,0v12.686l-10.343-10.343a8,8,0,1,0-11.314,11.314Z"/><path d="M200,344h88a8,8,0,0,0,0-16H200a8,8,0,0,0,0,16Z"/><path d="M264,360H240a8,8,0,0,0,0,16h24a8,8,0,0,0,0-16Z"/><path d="M216,392H200a8,8,0,0,0,0,16h16a8,8,0,0,0,0-16Z"/><path d="M224,456a8,8,0,0,0,8,8h64a8,8,0,0,0,0-16H232A8,8,0,0,0,224,456Z"/><path d="M200,448H168a8,8,0,0,0,0,16h32a8,8,0,0,0,0-16Z"/><path d="M408,280h16a8,8,0,0,0,0-16H408a8,8,0,0,0,0,16Z"/><path d="M270.641,80a32,32,0,1,0,32-32A32.036,32.036,0,0,0,270.641,80Zm32-16a16,16,0,1,1-16,16A16.019,16.019,0,0,1,302.641,64Z"/><path d="M310.641,32V24a8,8,0,0,0-16,0v8a8,8,0,0,0,16,0Z"/><path d="M265.359,49.568l-6.928-4a8,8,0,1,0-8,13.858l6.928,4a8,8,0,0,0,8-13.858Z"/><path d="M257.934,97.568l-6.929,4a8,8,0,1,0,8,13.858l6.929-4a8,8,0,0,0-8-13.858Z"/><path d="M295.79,128v8a8,8,0,0,0,16,0v-8a8,8,0,0,0-16,0Z"/><path d="M349.072,96.575a8,8,0,0,0-8,13.856l6.928,4a8,8,0,0,0,8-13.856Z"/><path d="M347.426,44.574l-6.929,4a8,8,0,1,0,8,13.858l6.929-4a8,8,0,0,0-8-13.858Z"/><path d="M144,64a8,8,0,0,0,0-16H88a8,8,0,0,0,0,16Z"/><path d="M56,80a8,8,0,0,0,8,8H176a8,8,0,0,0,0-16H64A8,8,0,0,0,56,80Z"/><path d="M88,96a8,8,0,0,0,0,16h24a8,8,0,0,0,0-16Z"/><path d="M136,96a8,8,0,0,0,0,16h32a8,8,0,0,0,0-16Z"/><path d="M488,72H408a8,8,0,0,0,0,16h80a8,8,0,0,0,0-16Z"/><path d="M472,64a8,8,0,0,0,0-16H432a8,8,0,0,0,0,16Z"/><path d="M440,112a8,8,0,0,0,0-16H424a8,8,0,0,0,0,16Z"/><path d="M56,48H40a8,8,0,0,0,0,16H56a8,8,0,0,0,0-16Z"/><path d="M488,96H472a8,8,0,0,0,0,16h16a8,8,0,0,0,0-16Z"/><path d="M226.343,309.657a8,8,0,0,0,11.314,0l24-24a8,8,0,1,0-11.314-11.314L240,284.686V272a8,8,0,0,0-16,0v12.686l-10.343-10.343a8,8,0,0,0-11.314,11.314Z"/><path d="M306.343,309.657a8,8,0,0,0,11.314,0l24-24a8,8,0,0,0-11.314-11.314L320,284.686V272a8,8,0,0,0-16,0v12.686l-10.343-10.343a8,8,0,0,0-11.314,11.314Z"/></g></svg>
