<svg id="Layer_1" data-name="Layer 1" xmlns="http://www.w3.org/2000/svg" viewBox="0 0 200 200"><defs><style>.cls-1{fill:#fff;}.cls-2{font-size:79px;font-family:BebasKai, Bebas Kai;}.cls-2,.cls-4{fill:#006837;}.cls-3{letter-spacing:-0.01em;}</style></defs><circle class="cls-1" cx="100" cy="100" r="99.5"/><path class="cls-1" d="M100,1A99,99,0,1,1,1,100,99.11,99.11,0,0,1,100,1m0-1A100,100,0,1,0,200,100,100,100,0,0,0,100,0Z"/><text class="cls-2" transform="translate(51.96 86.04)">HC<tspan class="cls-3" x="67.86" y="0">T</tspan></text><path class="cls-4" d="M134.28,135.1a10.49,10.49,0,0,1-.63,5.29,8.69,8.69,0,0,1-3.41,4.58,4.76,4.76,0,0,1-1.49.58c-3.11.65-7.19,3.2-10.38,6.13s-5.43,6.26-5.33,8.73c0,.75.08,1.35.13,2,.16,2.12.32,4.36-.14,5.36-.11.24-.43.28-1.13,0a22.24,22.24,0,0,1-9.33-8L102,126.2h29.53q.15,1.27.39,2.46h0a17.8,17.8,0,0,0,2,5.6A2.48,2.48,0,0,1,134.28,135.1Z"/><path class="cls-4" d="M131.31,121.08c0,.85,0,1.67.06,2.47H102l-.14-8.51c2.15,1.59,5.94,2.26,12.7,2.26h.75C121.94,117.3,131.31,117.3,131.31,121.08Z"/><path class="cls-4" d="M99.35,109.16v46.68a18.72,18.72,0,0,0-2-5.35c-.32-.66-.65-1.33-1.24-2.51-2.28-4.5-4.55-5.94-6.92-5.69s-4.22,2.07-6.16,4.22a4.16,4.16,0,0,1-.81.7,2.86,2.86,0,0,1-1.82.45,4.87,4.87,0,0,1-2.68-1.41A15.15,15.15,0,0,1,75,143a64.49,64.49,0,0,0-8.38-10.6c-.47-.5-.89-.94-1.28-1.39-.71-.81-1-1.06-1-1.07.41-.33,3.06-.3,3.06-.3l14.73-.11a1.27,1.27,0,0,0,1.27-1.27V101.6a1,1,0,0,1,.28-.67l0-.05a.93.93,0,0,1,.62-.23H98.19a1.37,1.37,0,0,1,.68.21,1.06,1.06,0,0,1,.3.68v1.81A46.79,46.79,0,0,0,99.35,109.16Z"/><path class="cls-4" d="M113,167.77c.46-1,.3-3.24.14-5.36,0-.65-.13-1.25-.13-2-.1-2.47,2.15-5.79,5.33-8.73s7.27-5.48,10.38-6.13a4.76,4.76,0,0,0,1.49-.58,8.69,8.69,0,0,0,3.41-4.58,10.49,10.49,0,0,0,.63-5.29,2.48,2.48,0,0,0-.3-.84,17.8,17.8,0,0,1-2-5.6h0q-.24-1.18-.39-2.46H102l.57,33.61a22.24,22.24,0,0,0,9.33,8C112.6,168.05,112.92,168,113,167.77Zm2.28-50.47h-.75c-6.76,0-10.55-.67-12.7-2.26l.14,8.51h29.37c0-.8-.06-1.62-.06-2.47C131.31,117.3,121.94,117.3,115.31,117.3Zm-26.16,25c2.37-.25,4.64,1.19,6.92,5.69.59,1.18.92,1.85,1.24,2.51a18.72,18.72,0,0,1,2,5.35V109.16a46.79,46.79,0,0,1-.18-5.81v-1.81a1.06,1.06,0,0,0-.3-.68,1.37,1.37,0,0,0-.68-.21H84.4a.93.93,0,0,0-.62.23l0,.05a1,1,0,0,0-.28.67v26.63a1.27,1.27,0,0,1-1.27,1.27l-14.73.11s-2.65,0-3.06.3c0,0,.27.26,1,1.07.39.45.81.89,1.28,1.39A64.49,64.49,0,0,1,75,143a15.15,15.15,0,0,0,2.64,3.28,4.87,4.87,0,0,0,2.68,1.41,2.86,2.86,0,0,0,1.82-.45,4.16,4.16,0,0,0,.81-.7C84.93,144.36,86.88,142.53,89.15,142.29Zm21.92,28.18c-8.7-3.95-11.9-10.46-16-18.88l-1.23-2.51c-1.68-3.34-3.09-4.43-4.38-4.3s-3,1.65-4.54,3.4a6.74,6.74,0,0,1-1.35,1.15,5.35,5.35,0,0,1-3.44.83,7.32,7.32,0,0,1-4.13-2,18.5,18.5,0,0,1-3.09-3.79,61.24,61.24,0,0,0-8-10.24c-.55-.57-1-1.06-1.36-1.48-2.14-2.44-1.92-3.92-.45-4.88,1-.64,4.45-1,4.45-1H80.81V101.45a3.46,3.46,0,0,1,1-2.46l.08-.08A3.5,3.5,0,0,1,84.31,98H98.13a3.48,3.48,0,0,1,2.47,1,3.53,3.53,0,0,1,1,2.46v.3l.19,6.36c.48,4.78,2.72,6.56,13,6.5h.74c7.77,0,18.77,0,18.77,6.42a36.13,36.13,0,0,0,.6,7,15.57,15.57,0,0,0,1.76,4.86,5.38,5.38,0,0,1,.61,1.65,13.32,13.32,0,0,1-.76,6.73,11.35,11.35,0,0,1-4.49,6,7.43,7.43,0,0,1-2.27.9c-2.69.55-6.35,2.88-9.28,5.59-2.68,2.43-4.69,5.11-4.61,6.81,0,.55.07,1.24.13,1.95.18,2.47.4,5-.36,6.66S113.47,171.56,111.07,170.47Z"/></svg>